<?xml version="1.0" encoding="UTF-8"?>
<svg id="a" data-name="Camada 1" xmlns="http://www.w3.org/2000/svg" viewBox="0 0 81.26 71.34">
  <defs>
    <style>
      .b {
        fill: aqua;
      }
    </style>
  </defs>
  <path class="b" d="m3.66,70.84c-1.14,0-2.16-.59-2.73-1.58-.57-.99-.57-2.17,0-3.16L37.9,2.08c.57-.99,1.59-1.58,2.73-1.58s2.16.59,2.73,1.58l36.97,64.03c.57.99.57,2.17,0,3.16-.57.99-1.59,1.58-2.73,1.58H3.66Z"/>
  <path d="m40.63,1c.96,0,1.82.5,2.3,1.33l36.97,64.03c.48.83.48,1.82,0,2.66-.48.83-1.34,1.33-2.3,1.33H3.66c-.96,0-1.82-.5-2.3-1.33-.48-.83-.48-1.82,0-2.66L38.33,2.33c.48-.83,1.34-1.33,2.3-1.33m0-1c-1.23,0-2.46.61-3.17,1.83L.5,65.86c-1.41,2.44.35,5.48,3.17,5.48h73.94c2.81,0,4.57-3.05,3.17-5.48L43.8,1.83c-.7-1.22-1.93-1.83-3.17-1.83h0Z"/>
</svg>